<?xml version="1.0" encoding="UTF-8" standalone="no"?>
<!DOCTYPE svg PUBLIC "-//W3C//DTD SVG 1.1//EN" "http://www.w3.org/Graphics/SVG/1.1/DTD/svg11.dtd">
<svg width="100%" height="100%" viewBox="0 0 3060 870" version="1.1" xmlns="http://www.w3.org/2000/svg" xmlns:xlink="http://www.w3.org/1999/xlink" xml:space="preserve" xmlns:serif="http://www.serif.com/" style="fill-rule:evenodd;clip-rule:evenodd;stroke-linejoin:round;stroke-miterlimit:2;">
    <g transform="matrix(0.711217,0,0,0.711217,-359.069,3.3485)">
        <path d="M990.507,410.119C1027.71,410.119 1056.51,395.719 1074.51,364.519C1088.91,339.319 1097.31,302.119 1097.31,263.719C1097.31,207.319 1079.31,144.919 1042.11,92.119C1007.31,42.919 934.107,11.719 850.107,11.719C772.107,11.719 692.907,41.719 642.507,112.519C560.907,228.919 521.307,389.719 521.307,542.119C521.307,696.919 565.707,849.319 644.907,924.919C701.307,978.919 781.707,1004.12 856.107,1004.12C928.107,1004.12 995.307,983.719 1040.91,948.919C1126.11,882.919 1150.11,794.119 1150.11,725.719C1150.11,698.119 1145.31,672.919 1139.31,656.119C1127.31,624.919 1100.91,609.319 1076.91,609.319C1067.31,609.319 1057.71,611.719 1049.31,616.519C1051.71,627.319 1052.91,641.719 1052.91,658.519C1052.91,702.919 1044.51,760.519 1028.91,801.319C1000.11,875.719 946.107,932.119 875.307,932.119C772.107,932.119 690.507,756.919 690.507,503.719C690.507,252.919 786.507,82.519 862.107,82.519C935.307,82.519 943.707,185.719 943.707,269.719C943.707,320.119 940.107,364.519 936.507,387.319C952.107,401.719 965.307,410.119 990.507,410.119Z" style="fill-rule:nonzero;"/>
        <path d="M1664.91,875.719C1646.91,867.319 1640.91,824.119 1640.91,767.719C1640.91,698.119 1649.31,605.719 1656.51,537.319C1660.11,501.319 1662.51,471.319 1662.51,459.319C1661.31,406.519 1594.11,363.319 1556.91,363.319C1543.71,363.319 1535.31,369.319 1534.11,381.319C1532.91,399.319 1531.71,411.319 1529.31,424.519C1493.31,372.919 1435.71,344.119 1376.91,344.119C1355.31,344.119 1333.71,347.719 1313.31,356.119C1213.71,395.719 1164.51,543.319 1164.51,665.719L1164.51,678.919C1166.91,755.719 1188.51,828.919 1220.91,879.319C1249.71,924.919 1289.31,952.519 1330.11,952.519C1339.71,952.519 1350.51,951.319 1361.31,947.719C1436.91,921.319 1494.51,752.119 1511.31,694.519C1511.31,699.319 1510.11,704.119 1510.11,708.919C1508.91,728.119 1507.71,743.719 1507.71,759.319C1507.71,789.319 1511.31,819.319 1522.11,867.319C1526.91,887.719 1542.51,906.919 1561.71,921.319C1586.91,940.519 1627.71,956.119 1656.51,956.119C1730.91,956.119 1790.91,891.319 1811.31,831.319C1813.71,821.719 1814.91,813.319 1814.91,804.919C1814.91,773.719 1798.11,758.119 1784.91,754.519C1774.11,795.319 1724.91,880.519 1681.71,880.519C1675.71,880.519 1670.91,878.119 1664.91,875.719ZM1352.91,846.919C1334.91,846.919 1318.11,789.319 1318.11,728.119C1318.11,629.719 1346.91,491.719 1396.11,440.119C1410.51,425.719 1424.91,419.719 1438.11,419.719C1477.71,419.719 1508.91,473.719 1512.51,512.119C1490.91,609.319 1452.51,719.719 1414.11,785.719C1392.51,822.919 1370.91,846.919 1352.91,846.919Z" style="fill-rule:nonzero;"/>
        <path d="M2557.71,956.119C2603.31,942.919 2665.71,885.319 2682.51,826.519C2684.91,816.919 2686.11,808.519 2686.11,800.119C2686.11,770.119 2669.31,753.319 2656.11,750.919C2650.11,772.519 2628.51,815.719 2603.31,846.919C2586.51,867.319 2568.51,881.719 2550.51,881.719C2543.31,881.719 2537.31,880.519 2531.31,875.719C2514.51,864.919 2510.91,824.119 2510.91,779.719C2510.91,732.919 2515.71,681.319 2516.91,657.319C2519.31,617.719 2522.91,579.319 2522.91,543.319C2522.91,516.919 2520.51,492.919 2514.51,470.119C2490.51,390.919 2424.51,363.319 2374.11,363.319C2320.11,363.319 2282.91,414.919 2262.51,470.119C2239.71,530.119 2214.51,587.719 2194.11,669.319C2195.31,633.319 2196.51,608.119 2196.51,581.719C2196.51,537.319 2192.91,491.719 2176.11,450.919C2156.91,404.119 2105.31,364.519 2052.51,364.519C1981.71,364.519 1957.71,430.519 1937.31,483.319C1904.91,566.119 1879.71,669.319 1876.11,686.119C1884.51,546.919 1884.51,534.919 1884.51,524.119C1884.51,478.519 1878.51,444.919 1871.31,429.319C1854.51,393.319 1812.51,375.319 1777.71,375.319C1769.31,375.319 1760.91,376.519 1753.71,378.919C1758.51,406.519 1759.71,431.719 1759.71,456.919C1759.71,507.319 1753.71,556.519 1750.11,622.519C1746.51,674.119 1744.11,741.319 1744.11,795.319C1744.11,822.919 1745.31,846.919 1746.51,863.719C1750.11,909.319 1817.31,942.919 1859.31,942.919C1867.71,942.919 1873.71,941.719 1879.71,939.319C1879.71,891.319 1904.91,780.919 1936.11,677.719C1970.91,563.719 2012.91,459.319 2038.11,459.319C2063.31,459.319 2068.11,521.719 2068.11,594.919C2068.11,621.319 2068.11,650.119 2066.91,676.519C2064.51,746.119 2056.11,803.719 2056.11,845.719C2056.11,860.119 2057.31,872.119 2059.71,882.919C2070.51,923.719 2111.31,940.519 2149.71,940.519C2164.11,940.519 2177.31,938.119 2189.31,934.519L2189.31,927.319C2189.31,885.319 2216.91,773.719 2250.51,669.319C2273.31,597.319 2299.71,530.119 2322.51,490.519C2334.51,468.919 2346.51,456.919 2354.91,456.919C2368.11,456.919 2375.31,471.319 2380.11,489.319C2386.11,512.119 2386.11,538.519 2386.11,548.119C2386.11,612.919 2378.91,671.719 2378.91,730.519C2378.91,770.119 2382.51,807.319 2392.11,844.519C2410.11,912.919 2473.71,959.719 2531.31,959.719C2540.91,959.719 2549.31,958.519 2557.71,956.119Z" style="fill-rule:nonzero;"/>
        <path d="M3101.31,875.719C3083.31,867.319 3077.31,824.119 3077.31,767.719C3077.31,698.119 3085.71,605.719 3092.91,537.319C3096.51,501.319 3098.91,471.319 3098.91,459.319C3097.71,406.519 3030.51,363.319 2993.31,363.319C2980.11,363.319 2971.71,369.319 2970.51,381.319C2969.31,399.319 2968.11,411.319 2965.71,424.519C2929.71,372.919 2872.11,344.119 2813.31,344.119C2791.71,344.119 2770.11,347.719 2749.71,356.119C2650.11,395.719 2600.91,543.319 2600.91,665.719L2600.91,678.919C2603.31,755.719 2624.91,828.919 2657.31,879.319C2686.11,924.919 2725.71,952.519 2766.51,952.519C2776.11,952.519 2786.91,951.319 2797.71,947.719C2873.31,921.319 2930.91,752.119 2947.71,694.519C2947.71,699.319 2946.51,704.119 2946.51,708.919C2945.31,728.119 2944.11,743.719 2944.11,759.319C2944.11,789.319 2947.71,819.319 2958.51,867.319C2963.31,887.719 2978.91,906.919 2998.11,921.319C3023.31,940.519 3064.11,956.119 3092.91,956.119C3167.31,956.119 3227.31,891.319 3247.71,831.319C3250.11,821.719 3251.31,813.319 3251.31,804.919C3251.31,773.719 3234.51,758.119 3221.31,754.519C3210.51,795.319 3161.31,880.519 3118.11,880.519C3112.11,880.519 3107.31,878.119 3101.31,875.719ZM2789.31,846.919C2771.31,846.919 2754.51,789.319 2754.51,728.119C2754.51,629.719 2783.31,491.719 2832.51,440.119C2846.91,425.719 2861.31,419.719 2874.51,419.719C2914.11,419.719 2945.31,473.719 2948.91,512.119C2927.31,609.319 2888.91,719.719 2850.51,785.719C2828.91,822.919 2807.31,846.919 2789.31,846.919Z" style="fill-rule:nonzero;"/>
        <path d="M3496.11,1086.92C3481.71,1110.92 3454.11,1120.52 3431.31,1120.52C3408.51,1120.52 3389.31,1112.12 3389.31,1098.92C3389.31,1089.32 3403.71,1078.52 3410.91,1073.72C3430.11,1059.32 3503.31,1024.52 3521.31,1017.32C3515.31,1042.52 3508.11,1065.32 3496.11,1086.92ZM3378.51,848.119C3354.51,848.119 3336.51,808.519 3336.51,725.719C3336.51,701.719 3337.71,674.119 3341.31,642.919C3353.31,544.519 3396.51,417.319 3449.31,417.319C3485.31,417.319 3522.51,459.319 3529.71,512.119C3510.51,581.719 3490.11,654.919 3462.51,716.119C3430.11,785.719 3401.31,848.119 3378.51,848.119ZM3527.31,938.119C3527.31,938.119 3468.51,969.319 3431.31,987.319C3376.11,1013.72 3314.91,1043.72 3289.71,1083.32C3282.51,1096.52 3277.71,1109.72 3277.71,1122.92C3277.71,1188.92 3374.91,1202.12 3418.11,1202.12C3481.71,1202.12 3552.51,1180.52 3590.91,1134.92C3630.51,1088.12 3649.71,1017.32 3658.11,950.119C3719.31,917.719 3774.51,880.519 3804.51,839.719C3816.51,822.919 3822.51,806.119 3822.51,794.119C3822.51,768.919 3805.71,752.119 3792.51,744.919C3779.31,762.919 3760.11,783.319 3736.11,802.519C3715.71,819.319 3691.71,837.319 3666.51,855.319C3666.51,840.919 3672.51,683.719 3676.11,617.719C3680.91,532.519 3676.11,495.319 3683.31,446.119C3683.31,437.719 3682.11,431.719 3678.51,424.519C3660.51,393.319 3607.71,372.919 3572.91,372.919C3559.71,372.919 3548.91,375.319 3547.71,381.319C3546.51,393.319 3544.11,407.719 3540.51,420.919C3510.51,365.719 3451.71,340.519 3410.91,340.519C3337.71,340.519 3277.71,383.719 3238.11,446.119C3200.91,507.319 3180.51,585.319 3180.51,664.519C3180.51,708.919 3187.71,753.319 3199.71,794.119C3217.71,851.719 3244.11,892.519 3274.11,918.919C3299.31,940.519 3325.71,951.319 3352.11,951.319C3386.91,951.319 3412.11,930.919 3431.31,906.919C3475.71,851.719 3511.71,750.919 3541.71,659.719C3541.71,682.519 3529.71,758.119 3529.71,815.719C3529.71,878.119 3527.31,915.319 3527.31,938.119Z" style="fill-rule:nonzero;"/>
        <path d="M3896.91,807.319C3896.91,776.119 3908.91,729.319 3925.71,686.119C3938.91,651.319 3954.51,617.719 3970.11,592.519C4002.51,641.719 4061.31,674.119 4128.51,674.119C4196.91,674.119 4253.31,636.919 4253.31,575.719C4253.31,546.919 4240.11,528.919 4219.71,526.519C4210.11,564.919 4174.11,598.519 4135.71,598.519C4132.11,598.519 4127.31,598.519 4123.71,597.319C4066.11,585.319 4044.51,522.919 4044.51,522.919C4044.51,522.919 4093.71,466.519 4093.71,434.119C4093.71,386.119 4042.11,345.319 4003.71,345.319C3994.11,345.319 3985.71,347.719 3978.51,353.719C3960.51,368.119 3947.31,394.519 3938.91,429.319C3935.31,444.919 3934.11,460.519 3934.11,472.519C3934.11,480.919 3935.31,490.519 3936.51,498.919C3924.51,521.719 3911.31,555.319 3900.51,591.319L3900.51,544.519C3900.51,494.119 3898.11,444.919 3874.11,408.919C3854.91,377.719 3823.71,356.119 3788.91,356.119C3780.51,356.119 3772.11,357.319 3763.71,359.719C3766.11,372.919 3768.51,392.119 3768.51,417.319C3768.51,444.919 3767.31,479.719 3766.11,518.119C3764.91,564.919 3763.71,630.919 3763.71,680.119C3763.71,767.719 3768.51,850.519 3782.91,886.519C3794.91,918.919 3835.71,951.319 3874.11,951.319C3883.71,951.319 3893.31,950.119 3901.71,945.319C3898.11,898.519 3896.91,856.519 3896.91,807.319Z" style="fill-rule:nonzero;"/>
        <path d="M4294.11,438.919C4283.31,386.119 4219.71,359.719 4175.31,359.719L4169.31,359.719C4170.51,368.119 4170.51,377.719 4170.51,387.319C4170.51,412.519 4168.11,444.919 4164.51,479.719C4164.51,484.519 4163.31,490.519 4163.31,495.319C4158.51,550.519 4154.91,611.719 4154.91,668.119C4154.91,705.319 4154.91,741.319 4162.11,774.919C4177.71,849.319 4237.71,939.319 4318.11,939.319C4330.11,939.319 4343.31,936.919 4356.51,932.119C4378.11,924.919 4394.91,902.119 4411.71,867.319C4452.51,786.919 4483.71,653.719 4504.11,585.319C4496.91,623.719 4489.71,698.119 4489.71,754.519C4489.71,790.519 4495.71,830.119 4506.51,863.719C4529.31,928.519 4582.11,954.919 4632.51,954.919C4652.91,954.919 4673.31,950.119 4690.11,942.919C4741.71,920.119 4790.91,840.919 4790.91,802.519C4790.91,766.519 4766.91,754.519 4754.91,754.519C4752.51,765.319 4738.11,794.119 4717.71,822.919C4697.31,851.719 4669.71,879.319 4648.11,879.319C4610.91,879.319 4610.91,812.119 4610.91,782.119C4610.91,744.919 4613.31,702.919 4618.11,651.319C4621.71,603.319 4626.51,548.119 4626.51,501.319C4626.51,455.719 4595.31,416.119 4562.91,390.919C4540.11,372.919 4516.11,362.119 4501.71,362.119C4493.31,362.119 4488.51,364.519 4487.31,371.719C4483.71,390.919 4475.31,426.919 4466.91,464.119C4436.91,591.319 4384.11,790.519 4346.91,819.319C4340.91,824.119 4336.11,826.519 4330.11,826.519C4314.51,826.519 4300.11,809.719 4291.71,774.919C4289.31,766.519 4289.31,752.119 4289.31,734.119C4289.31,672.919 4297.71,568.519 4298.91,518.119C4298.91,485.719 4297.71,458.119 4294.11,438.919Z" style="fill-rule:nonzero;"/>
    </g>
</svg>
